<svg width="160" height="160" viewBox="0 0 160 160" fill="none" xmlns="http://www.w3.org/2000/svg">
  <rect width="160" height="160" rx="40" fill="#F8F5EF"/>
  <path d="M80 31C95.5 45.2 104.4 63.2 104.4 79.7C104.4 108.6 85.7 129 58.9 129C43.6 129 31 116.9 31 100.4C31 74.3 53.3 53.2 80 31Z" fill="#2D5016"/>
  <path d="M89.4 48.7C107.5 57.3 121.9 73.8 128.5 93.5C133.5 108.1 128.2 123 115.2 128.5C101.9 134.2 86.2 127.4 76.2 114.2C60.3 93.5 66.7 63.4 89.4 48.7Z" fill="#8B6914"/>
  <path d="M80 57L84.6 92.5C86 103.3 82.4 114.3 74.7 121.9L71.2 125.3" stroke="#F8F5EF" stroke-width="9" stroke-linecap="round"/>
  <circle cx="115.5" cy="46.5" r="9.5" fill="#8B6914"/>
</svg>
